# xmcd
#
# Track frame offsets: 
#        182
#        29927
#        51915
#        77192
#        106815
#        128830
#        160797
#        186240
#        212245
#        228027
#
# Disc length: 3505 seconds
#
# Revision: 1
# Processed by: cddbd v1.5.2PL0 Copyright (c) Steve Scherf et al.
# Submitted via: ExactAudioCopy v0.95b4
#
DISCID=860daf0a
DTITLE=Viva Salsa ! - CD1
DYEAR=1991
DGENRE=Salsa
TTITLE0=Ray Barretto - Rhythm of life
TTITLE1=Ray Barretto - Amor artificial
TTITLE2=Ray Berretto - Indeferencia
TTITLE3=Ray Barretto - Mi dedicacion
TTITLE4=Fania all stars - Dime que te pasa
TTITLE5=Fania all stars - Voy a vivir para siempre
TTITLE6=Fania all stars - Nina
TTITLE7=Fania all stars - Bilongo
TTITLE8=Fania all stars - Mi son den boso
TTITLE9=Fania all stars - Rosa en el fango
EXTD=YEAR: 1991
EXTT0=
EXTT1=
EXTT2=
EXTT3=
EXTT4=
EXTT5=
EXTT6=
EXTT7=
EXTT8=
EXTT9=
PLAYORDER=
